# xmcd
#
# Track frame offsets: 
#        150
#        20242
#        44049
#        60326
#        81064
#        99744
#        123404
#        154372
#        177745
#        218193
#
# Disc length: 3079 seconds
#
# Revision: 8
# Processed by: cddbd v1.5.2PL0 Copyright (c) Steve Scherf et al.
# Submitted via: ExactAudioCopyFreeDBPlugin 1.0
#
DISCID=920c050a
DTITLE=Popa Chubby - How'd A White Boy Get The Blues?
DYEAR=2000
DGENRE=Blues
TTITLE0=Carrying On The Torch Of The Blues
TTITLE1=Time Is Killing Me
TTITLE2=Daddy Played The Guitar And Mama Was A Disco Queen
TTITLE3=Black Hearted Woman
TTITLE4=Savin' My Love Up For My Lover
TTITLE5=No Comfort
TTITLE6=It's A Sad Day In New York City When There Ain't No Room For T
TTITLE6=he Blues
TTITLE7=Goin' Down To Willie's
TTITLE8=Since I Lost My Leg
TTITLE9=How'd A White Boy Get The Blues?
EXTD=YEAR: 2000
EXTT0=
EXTT1=
EXTT2=
EXTT3=
EXTT4=
EXTT5=
EXTT6=
EXTT7=
EXTT8=
EXTT9=
PLAYORDER=
